<?xml version="1.0" encoding="iso-8859-1"?>
<!-- Generator: Adobe Illustrator 19.0.0, SVG Export Plug-In . SVG Version: 6.00 Build 0)  -->
<svg version="1.1" id="Capa_1" xmlns="http://www.w3.org/2000/svg" xmlns:xlink="http://www.w3.org/1999/xlink" x="0px" y="0px"
	 viewBox="0 0 512 512" style="enable-background:new 0 0 512 512;" xml:space="preserve">
<g>
	<g>
		<path d="M332.004,0c-99.248,0-179.996,80.748-179.996,179.996c0,44.239,16.05,84.788,42.619,116.167l-29.419,29.419
			c-16.525-7.89-37.19-5.239-51.229,8.8L13.191,435.171c-17.586,17.586-17.59,46.049,0,63.639c17.586,17.586,46.05,17.589,63.639,0
			c1.264-1.264,98.507-98.507,100.788-100.788c13.82-13.83,16.74-34.479,8.78-51.209l29.439-29.439
			c31.379,26.569,71.928,42.619,116.167,42.619c99.248,0,179.996-80.748,179.996-179.996S431.252,0,332.004,0z M55.61,477.59
			c-5.845,5.866-15.344,5.877-21.2,0c-5.866-5.845-5.877-15.344,0-21.2l66.389-66.399l21.21,21.21L55.61,477.59z M156.398,376.802
			l-13.18,13.19l-21.21-21.21l13.19-13.19c5.872-5.872,15.356-5.844,21.2,0C162.229,361.404,162.271,370.948,156.398,376.802z
			 M332.004,329.993c-41.319,0-78.788-16.79-105.938-43.909c-0.03-0.02-0.05-0.05-0.07-0.08
			c-1.796-1.171-43.989-40.82-43.989-106.008C182.007,97.288,249.296,30,332.004,30s149.997,67.289,149.997,149.997
			S414.712,329.993,332.004,329.993z"/>
	</g>
</g>
<g>
	<g>
		<path d="M383.923,89.998c-20.64,0-38.559,9.45-51.919,27.349c-13.36-17.9-31.279-27.349-51.919-27.349
			c-38.888,0-66.929,32.277-66.929,71.359c0,50.087,47.281,81.441,109.028,134.977c2.82,2.44,6.32,3.66,9.82,3.66s7-1.22,9.82-3.66
			c62.098-53.772,109.028-85.027,109.028-134.977C450.851,122.237,422.772,89.998,383.923,89.998z M332.004,265.214
			c-54.119-46.28-88.848-71.232-88.848-103.858c0-23.58,15.88-41.359,36.929-41.359c27.369,0,37.079,32.669,37.479,34.069
			c1.82,6.46,7.71,10.96,14.43,10.96c6.74,0,12.65-4.46,14.45-10.96c0.4-1.39,10.1-34.069,37.479-34.069
			c21.049,0,36.929,17.78,36.929,41.359C420.852,193.986,386.124,218.933,332.004,265.214z"/>
	</g>
</g>
<g>
</g>
<g>
</g>
<g>
</g>
<g>
</g>
<g>
</g>
<g>
</g>
<g>
</g>
<g>
</g>
<g>
</g>
<g>
</g>
<g>
</g>
<g>
</g>
<g>
</g>
<g>
</g>
<g>
</g>
</svg>
